<?xml version="1.0" encoding="utf-8"?>
<!DOCTYPE svg PUBLIC "-//W3C//DTD SVG 20010904//EN" "http://www.w3.org/TR/2001/REC-SVG-20010904/DTD/svg10.dtd">
<svg version="1.0" xmlns="http://www.w3.org/2000/svg" width="1296pt" height="1098pt" viewBox="0 0 1296 1098" style="" preserveAspectRatio="xMidYMid meet">
<g fill="#3972C1FF" stroke="#3972C1FF">
<path d="M 611.413 60.903 C 609.715 61.331 607.755 62.033 607.059 62.464 C 606.362 62.894 599.249 63.606 591.253 64.047 C 582.538 64.526 576.438 65.291 576.028 65.955 C 575.651 66.564 571.103 67.530 565.922 68.100 C 560.740 68.671 555.568 69.739 554.429 70.475 C 553.290 71.210 549.690 72.126 546.429 72.512 C 543.168 72.897 539.563 73.800 538.417 74.520 C 537.271 75.239 534.121 76.146 531.417 76.536 C 528.713 76.926 525.731 77.918 524.791 78.741 C 523.850 79.563 520.925 80.474 518.291 80.763 C 515.656 81.053 512.427 82.125 511.115 83.145 C 509.803 84.165 507.238 85.000 505.415 85.000 C 503.444 85.000 501.744 85.636 501.222 86.568 C 500.740 87.430 498.361 88.581 495.937 89.125 C 493.513 89.670 490.848 90.715 490.015 91.447 C 489.182 92.179 487.069 93.081 485.319 93.453 C 483.570 93.825 481.641 94.728 481.033 95.460 C 480.426 96.192 478.413 97.075 476.561 97.423 C 474.709 97.770 472.955 98.675 472.664 99.433 C 472.373 100.191 470.642 101.137 468.818 101.536 C 466.993 101.935 464.427 103.102 463.115 104.130 C 461.803 105.159 459.877 106.000 458.834 106.000 C 457.791 106.000 456.687 106.653 456.380 107.452 C 456.074 108.250 454.288 109.410 452.412 110.029 C 450.535 110.648 449.000 111.502 449.000 111.926 C 449.000 112.350 447.313 113.433 445.250 114.333 C 443.188 115.232 440.346 116.763 438.935 117.734 C 437.524 118.705 434.824 120.486 432.935 121.691 C 431.046 122.896 428.956 124.358 428.292 124.941 C 427.628 125.523 426.681 126.000 426.188 126.000 C 425.695 126.000 424.078 127.125 422.595 128.500 C 421.111 129.875 419.345 131.000 418.671 131.000 C 417.996 131.000 416.698 131.788 415.785 132.750 C 414.872 133.713 412.929 135.400 411.466 136.500 C 410.003 137.600 407.736 139.400 406.427 140.500 C 405.118 141.600 402.451 143.625 400.500 145.000 C 398.549 146.375 395.815 148.513 394.425 149.750 C 393.034 150.988 391.470 152.000 390.948 152.000 C 390.427 152.000 390.000 152.675 390.000 153.500 C 390.000 154.325 389.597 155.000 389.105 155.000 C 388.613 155.000 386.025 157.052 383.355 159.561 C 373.321 168.987 357.000 185.170 357.000 185.692 C 357.000 185.990 355.277 187.906 353.171 189.950 C 351.065 191.993 349.054 194.416 348.703 195.333 C 348.351 196.250 347.374 197.000 346.531 197.000 C 345.689 197.000 345.000 197.649 345.000 198.443 C 345.000 199.237 344.165 200.475 343.143 201.193 C 342.122 201.912 340.967 203.513 340.576 204.751 C 340.185 205.989 338.995 207.467 337.932 208.036 C 336.870 208.605 336.000 209.714 336.000 210.500 C 336.000 211.286 335.100 212.411 334.000 213.000 C 332.900 213.589 332.000 214.744 332.000 215.567 C 332.000 216.389 331.325 217.322 330.500 217.638 C 329.675 217.955 328.999 218.728 328.999 219.357 C 328.998 219.986 327.886 221.793 326.527 223.372 C 325.169 224.952 323.789 227.090 323.461 228.122 C 323.133 229.155 322.452 230.000 321.946 230.000 C 321.440 230.000 320.369 231.575 319.564 233.500 C 318.760 235.425 317.673 237.000 317.149 237.000 C 316.625 237.000 315.725 238.350 315.150 240.000 C 314.575 241.650 313.666 243.000 313.131 243.000 C 312.597 243.000 311.873 244.303 311.523 245.896 C 311.173 247.489 310.012 249.584 308.943 250.551 C 307.874 251.519 307.000 253.114 307.000 254.096 C 307.000 255.078 306.504 256.188 305.898 256.563 C 305.292 256.938 304.161 258.764 303.385 260.622 C 302.608 262.480 301.600 264.000 301.145 264.000 C 300.689 264.000 299.791 265.753 299.149 267.897 C 298.507 270.040 297.311 272.050 296.491 272.365 C 295.671 272.680 295.000 274.016 295.000 275.334 C 295.000 276.652 294.159 278.803 293.130 280.115 C 292.102 281.427 290.948 283.931 290.566 285.681 C 290.184 287.430 289.272 289.359 288.540 289.967 C 287.808 290.574 286.899 292.743 286.520 294.786 C 286.141 296.829 285.081 299.340 284.165 300.367 C 281.875 302.934 282.138 320.069 284.571 326.797 C 286.344 331.699 290.075 336.000 292.556 336.000 C 293.350 336.000 294.900 336.900 296.000 338.000 C 297.100 339.100 298.717 340.000 299.592 340.000 C 300.468 340.000 302.329 340.900 303.727 342.000 C 305.126 343.100 307.009 344.000 307.913 344.000 C 308.816 344.000 310.326 344.900 311.268 346.000 C 312.210 347.100 313.867 348.000 314.951 348.000 C 316.035 348.000 317.727 348.848 318.711 349.884 C 319.695 350.919 321.925 352.072 323.666 352.445 C 325.408 352.817 327.081 353.770 327.385 354.561 C 327.689 355.352 328.817 356.000 329.892 356.000 C 330.967 356.000 333.184 357.125 334.818 358.500 C 336.452 359.875 338.667 361.000 339.739 361.000 C 340.812 361.000 342.505 361.900 343.500 363.000 C 344.495 364.100 346.028 365.004 346.905 365.009 C 347.782 365.013 350.188 366.617 352.250 368.572 L 356.000 372.126 356.000 417.902 L 356.000 463.679 358.500 464.818 C 359.875 465.445 361.000 466.359 361.000 466.851 C 361.000 467.342 362.817 468.035 365.038 468.390 C 367.259 468.745 369.322 469.675 369.622 470.457 C 369.922 471.238 371.592 472.189 373.334 472.569 C 375.075 472.949 377.573 474.102 378.885 475.130 C 380.197 476.159 382.054 477.000 383.012 477.000 C 383.971 477.000 385.255 477.602 385.866 478.338 C 386.476 479.074 388.782 480.217 390.988 480.878 C 393.195 481.539 395.000 482.492 395.000 482.995 C 395.000 483.498 396.546 484.199 398.435 484.554 C 400.324 484.908 402.643 486.053 403.590 487.099 C 404.536 488.145 406.305 489.000 407.520 489.000 C 408.736 489.000 410.874 489.900 412.273 491.000 C 413.671 492.100 415.552 493.000 416.453 493.000 C 417.354 493.000 419.195 494.105 420.545 495.455 L 423.000 497.909 423.000 580.430 L 423.000 662.951 458.989 663.226 C 489.241 663.456 495.065 663.275 495.520 662.088 C 495.818 661.312 496.033 621.712 495.999 574.088 C 495.965 526.465 495.951 486.723 495.968 485.774 C 495.986 484.825 497.648 482.575 499.663 480.774 C 501.677 478.973 504.451 476.263 505.828 474.750 C 507.204 473.238 508.681 472.000 509.109 472.000 C 509.537 472.000 514.460 467.500 520.049 462.000 C 525.638 456.500 530.395 452.000 530.619 452.000 C 530.844 452.000 535.726 447.388 541.468 441.750 C 547.211 436.113 555.192 428.501 559.205 424.836 C 563.217 421.172 568.682 416.112 571.349 413.592 C 574.016 411.073 577.506 407.911 579.105 406.565 L 582.011 404.119 582.026 311.072 L 582.041 218.024 589.456 210.512 C 593.534 206.380 597.320 203.000 597.868 203.000 C 598.417 203.000 599.151 202.100 599.500 201.000 C 599.849 199.900 600.522 199.000 600.995 199.000 C 601.468 199.000 605.657 195.288 610.305 190.750 C 622.811 178.540 636.949 165.668 639.372 164.285 C 642.732 162.368 644.817 162.784 646.703 165.750 C 647.665 167.263 649.025 168.860 649.726 169.300 C 650.427 169.740 651.000 170.736 651.000 171.515 C 651.000 172.293 651.900 173.411 653.000 174.000 C 654.100 174.589 655.000 175.744 655.000 176.567 C 655.000 177.389 655.654 178.314 656.454 178.621 C 657.254 178.928 658.818 180.601 659.931 182.339 C 663.408 187.772 664.454 189.271 666.000 191.043 C 666.825 191.989 668.291 193.828 669.259 195.131 C 670.226 196.434 672.139 198.915 673.509 200.644 C 674.879 202.374 676.000 204.122 676.000 204.530 C 676.000 204.937 677.013 206.310 678.250 207.579 C 679.488 208.849 681.400 210.845 682.500 212.015 C 684.474 214.115 684.506 215.869 685.000 348.321 L 685.500 482.500 737.500 482.742 C 789.209 482.983 789.510 482.996 791.261 485.116 C 792.912 487.116 793.019 492.666 792.989 574.874 L 792.957 662.500 829.228 662.500 L 865.500 662.500 866.000 485.163 L 866.500 307.827 869.306 305.413 L 872.112 303.000 921.806 303.015 C 959.503 303.026 972.095 303.331 973.966 304.277 C 976.432 305.525 983.000 316.959 983.000 320.005 C 983.000 320.870 983.900 323.342 985.000 325.500 C 986.100 327.658 987.000 330.880 987.000 332.662 C 987.000 334.583 987.647 336.263 988.590 336.791 C 989.610 337.361 990.434 339.799 990.888 343.590 C 991.277 346.841 992.308 350.625 993.179 352.000 C 994.050 353.375 995.043 357.400 995.386 360.944 C 995.729 364.488 996.397 367.638 996.870 367.944 C 998.212 368.811 998.883 371.979 999.107 378.500 C 999.220 381.800 1000.142 386.654 1001.156 389.287 C 1002.508 392.797 1003.005 396.798 1003.019 404.287 C 1003.030 409.904 1003.691 419.000 1004.488 424.500 C 1006.345 437.316 1006.355 454.784 1004.512 467.500 C 1003.715 473.000 1003.049 482.124 1003.032 487.775 C 1003.008 495.423 1002.489 499.505 1001.000 503.740 C 999.846 507.024 999.000 511.994 999.000 515.493 C 999.000 519.300 998.434 522.363 997.479 523.727 C 996.642 524.921 995.563 529.042 995.081 532.885 C 994.598 536.728 993.483 540.901 992.602 542.158 C 991.721 543.416 991.000 546.309 991.000 548.588 C 991.000 551.216 990.269 553.660 989.000 555.273 C 987.900 556.671 986.998 559.319 986.996 561.158 C 986.994 562.996 986.094 565.973 984.996 567.774 C 983.898 569.575 983.000 571.829 983.000 572.782 C 983.000 573.736 981.875 576.629 980.500 579.212 C 979.125 581.795 978.000 584.729 978.000 585.732 C 978.000 586.735 977.389 588.443 976.642 589.527 C 975.896 590.612 974.736 593.188 974.065 595.250 C 973.394 597.313 972.450 599.000 971.968 599.000 C 971.485 599.000 970.789 600.606 970.421 602.569 C 970.053 604.532 968.907 606.665 967.876 607.310 C 966.780 607.994 966.000 609.625 966.000 611.232 C 966.000 612.900 965.213 614.475 964.000 615.232 C 962.900 615.919 962.000 617.498 962.000 618.741 C 962.000 619.983 961.100 621.900 960.000 623.000 C 958.900 624.100 957.999 625.563 957.999 626.250 C 957.998 626.938 956.198 630.092 953.999 633.261 C 951.799 636.429 950.000 639.443 950.000 639.959 C 950.000 640.475 948.875 642.111 947.500 643.595 C 946.125 645.078 945.000 646.801 945.000 647.424 C 945.000 648.046 944.100 649.326 943.000 650.268 C 941.900 651.210 941.000 652.590 941.000 653.335 C 941.000 654.080 940.100 655.505 939.000 656.500 C 937.900 657.495 937.000 658.807 937.000 659.414 C 937.000 660.022 936.100 661.081 935.000 661.768 C 933.900 662.455 933.000 663.610 933.000 664.334 C 933.000 665.059 931.875 666.708 930.500 668.000 C 929.125 669.292 928.000 670.735 928.000 671.208 C 928.000 671.680 926.425 673.642 924.500 675.567 C 922.575 677.492 921.000 679.373 921.000 679.748 C 921.000 680.123 920.100 681.345 919.000 682.465 C 917.901 683.584 913.971 687.875 910.268 692.000 C 901.343 701.943 882.793 720.000 881.504 720.000 C 880.941 720.000 879.919 720.900 879.232 722.000 C 878.545 723.100 877.312 724.000 876.492 724.000 C 875.671 724.000 875.000 724.689 875.000 725.531 C 875.000 726.374 874.213 727.357 873.250 727.716 C 872.288 728.075 870.912 729.185 870.193 730.184 C 869.475 731.183 868.483 732.000 867.989 732.000 C 867.495 732.000 865.894 733.074 864.432 734.386 C 859.116 739.157 857.980 740.000 856.865 740.000 C 856.240 740.000 854.690 741.013 853.421 742.250 C 848.531 747.016 847.361 747.912 844.723 748.915 C 843.225 749.485 842.000 750.412 842.000 750.975 C 842.000 751.539 841.391 752.000 840.646 752.000 C 839.901 752.000 838.078 753.125 836.595 754.500 C 835.111 755.875 833.120 757.000 832.171 757.000 C 831.221 757.000 829.674 757.900 828.732 759.000 C 827.790 760.100 826.131 761.000 825.045 761.000 C 823.959 761.000 822.589 761.900 822.000 763.000 C 821.411 764.100 820.114 765.000 819.118 765.000 C 818.121 765.000 816.268 765.900 815.000 767.000 C 813.732 768.100 812.149 769.000 811.482 769.000 C 810.815 769.000 809.126 769.900 807.727 771.000 C 806.329 772.100 804.529 773.000 803.727 773.000 C 802.926 773.000 801.121 773.904 799.716 775.009 C 798.311 776.114 795.786 777.293 794.104 777.629 C 792.421 777.966 790.540 778.850 789.922 779.594 C 789.304 780.338 787.208 781.246 785.263 781.611 C 783.317 781.975 780.888 783.112 779.863 784.137 C 778.749 785.251 776.580 786.000 774.469 786.000 C 772.324 786.000 770.721 786.563 770.387 787.435 C 770.084 788.224 767.610 789.347 764.890 789.930 C 762.169 790.514 758.944 791.615 757.722 792.377 C 756.500 793.140 753.530 794.056 751.123 794.414 C 748.716 794.772 745.803 795.725 744.651 796.532 C 743.498 797.339 740.961 798.000 739.013 798.000 C 737.064 798.000 733.902 798.834 731.985 799.854 C 730.068 800.874 725.535 801.941 721.910 802.226 C 718.286 802.511 714.196 803.481 712.821 804.382 C 711.094 805.513 706.949 806.216 699.411 806.656 C 693.410 807.006 688.224 807.717 687.886 808.235 C 686.519 810.333 669.106 811.172 634.072 810.827 C 602.721 810.518 597.000 810.231 594.000 808.820 C 591.935 807.850 586.399 806.907 580.500 806.521 C 574.827 806.150 569.585 805.275 568.384 804.498 C 567.220 803.746 563.395 802.825 559.884 802.452 C 556.373 802.080 552.467 801.127 551.205 800.335 C 549.943 799.543 546.568 798.625 543.705 798.295 C 540.842 797.965 536.932 796.863 535.015 795.847 C 533.098 794.831 530.093 794.000 528.336 794.000 C 526.580 794.000 524.459 793.316 523.622 792.479 C 522.786 791.643 519.965 790.560 517.355 790.072 C 514.744 789.584 512.084 788.468 511.444 787.593 C 510.804 786.717 508.927 786.000 507.275 786.000 C 505.622 786.000 503.197 785.165 501.885 784.145 C 500.573 783.125 497.789 781.975 495.697 781.590 C 493.606 781.205 491.662 780.284 491.378 779.543 C 491.094 778.803 489.363 777.915 487.531 777.572 C 485.700 777.228 483.661 776.296 483.000 775.500 C 482.339 774.704 480.233 773.759 478.320 773.400 C 476.406 773.041 474.614 772.157 474.337 771.435 C 474.060 770.713 472.490 769.827 470.849 769.467 C 469.208 769.106 467.624 768.184 467.330 767.417 C 467.035 766.649 465.087 765.562 463.000 765.000 C 460.913 764.438 458.948 763.308 458.634 762.489 C 458.320 761.670 457.233 761.000 456.220 761.000 C 455.206 761.000 453.411 760.100 452.230 759.000 C 451.050 757.900 449.632 757.000 449.081 757.000 C 448.529 757.000 447.273 756.156 446.289 755.124 C 445.305 754.092 443.443 752.923 442.151 752.525 C 440.859 752.128 438.947 751.059 437.901 750.151 C 436.856 749.243 435.100 747.713 434.000 746.750 C 432.900 745.788 431.663 744.999 431.250 744.999 C 430.838 744.998 429.193 743.873 427.594 742.499 C 425.996 741.124 424.114 740.000 423.412 740.000 C 422.709 740.000 421.849 739.100 421.500 738.000 C 421.151 736.900 420.018 736.000 418.982 736.000 C 417.947 736.000 416.740 735.438 416.300 734.750 C 415.860 734.063 413.475 731.944 411.000 730.042 C 408.525 728.140 405.912 725.777 405.193 724.792 C 404.475 723.806 403.237 723.000 402.443 723.000 C 401.649 723.000 401.000 722.325 401.000 721.500 C 401.000 720.675 400.533 720.000 399.963 720.000 C 399.392 720.000 396.957 717.975 394.552 715.500 C 392.146 713.025 389.741 711.000 389.206 711.000 C 388.671 711.000 387.998 710.100 387.710 709.000 C 387.423 707.900 386.523 707.000 385.710 707.000 C 384.898 707.000 383.998 706.100 383.710 705.000 C 383.423 703.900 382.470 703.000 381.594 703.000 C 380.717 703.000 380.000 702.625 380.000 702.166 C 380.000 701.707 377.075 698.275 373.500 694.538 C 369.925 690.801 367.000 687.351 367.000 686.872 C 367.000 686.392 366.325 686.000 365.500 686.000 C 364.675 686.000 364.000 685.550 364.000 685.000 C 364.000 684.450 363.134 683.134 362.076 682.076 C 361.017 681.017 359.596 679.105 358.917 677.826 C 358.238 676.547 356.854 674.912 355.841 674.193 C 354.829 673.475 354.000 672.447 354.000 671.910 C 354.000 671.373 352.425 669.358 350.500 667.433 C 348.575 665.508 347.000 663.676 347.000 663.361 C 347.000 663.046 345.875 661.452 344.500 659.818 C 343.125 658.184 342.000 656.222 342.000 655.458 C 342.000 654.695 341.100 653.589 340.000 653.000 C 338.900 652.411 338.000 651.340 338.000 650.620 C 338.000 649.899 337.100 648.495 336.000 647.500 C 334.900 646.505 334.000 645.154 334.000 644.498 C 334.000 643.842 333.100 642.268 332.000 641.000 C 330.900 639.732 330.000 638.158 330.000 637.502 C 330.000 636.846 329.100 635.495 328.000 634.500 C 326.900 633.505 326.000 632.001 326.000 631.159 C 326.000 630.318 325.019 628.584 323.820 627.308 L 321.639 624.987 323.965 620.743 C 325.244 618.410 327.070 615.600 328.022 614.500 C 328.974 613.400 330.048 610.845 330.408 608.823 C 330.768 606.800 331.543 604.986 332.129 604.790 C 332.716 604.595 333.436 601.439 333.730 597.777 C 334.174 592.245 333.904 590.428 332.132 587.029 C 330.959 584.779 330.000 582.113 330.000 581.104 C 330.000 580.095 329.100 578.126 328.000 576.727 C 326.900 575.329 326.000 573.697 326.000 573.101 C 326.000 572.505 325.100 571.455 324.000 570.768 C 322.900 570.081 322.000 569.024 322.000 568.420 C 322.000 567.816 320.875 566.808 319.500 566.182 C 318.125 565.555 317.000 564.637 317.000 564.140 C 317.000 563.644 315.038 562.743 312.640 562.139 C 310.242 561.536 307.711 560.357 307.017 559.521 C 306.042 558.346 303.488 558.000 295.785 558.000 C 287.330 558.000 285.429 558.304 283.273 560.000 C 281.874 561.100 279.736 562.000 278.520 562.000 C 277.305 562.000 275.495 562.900 274.500 564.000 C 273.505 565.100 272.085 566.000 271.345 566.000 C 270.605 566.000 270.000 566.467 270.000 567.039 C 270.000 567.610 268.200 569.951 266.000 572.240 C 263.800 574.530 262.000 577.106 262.000 577.966 C 262.000 578.826 261.100 581.209 260.000 583.261 C 257.478 587.966 257.147 602.651 259.469 606.846 C 260.276 608.306 261.651 611.075 262.524 613.000 C 265.455 619.464 266.474 621.016 268.133 621.542 C 269.041 621.830 270.016 622.951 270.298 624.033 C 270.598 625.177 271.665 626.000 272.850 626.000 C 273.970 626.000 275.475 626.827 276.193 627.838 C 276.912 628.849 279.243 629.955 281.374 630.295 C 283.505 630.636 286.015 631.609 286.953 632.457 C 288.112 633.507 290.711 634.004 295.079 634.014 C 303.647 634.032 305.701 634.704 306.798 637.851 C 307.677 640.373 311.256 646.228 314.500 650.453 C 315.325 651.528 316.000 652.890 316.000 653.481 C 316.000 654.072 316.900 655.326 318.000 656.268 C 319.100 657.210 320.000 658.590 320.000 659.335 C 320.000 660.080 320.900 661.505 322.000 662.500 C 323.100 663.495 324.000 664.765 324.000 665.321 C 324.000 665.877 324.673 667.045 325.495 667.916 C 328.801 671.419 331.764 675.621 332.431 677.750 C 332.818 678.988 333.779 680.000 334.567 680.000 C 335.355 680.000 336.000 680.671 336.000 681.492 C 336.000 682.312 336.900 683.545 338.000 684.232 C 339.100 684.919 340.000 686.022 340.000 686.684 C 340.000 687.345 340.829 688.475 341.841 689.193 C 342.854 689.912 344.255 691.579 344.955 692.897 C 345.655 694.216 347.752 696.818 349.614 698.681 C 351.476 700.543 353.000 702.271 353.000 702.521 C 353.000 702.771 355.700 705.651 359.000 708.920 C 362.300 712.190 365.000 715.345 365.000 715.932 C 365.000 716.520 365.448 717.000 365.995 717.000 C 366.543 717.000 370.782 720.825 375.415 725.500 C 380.048 730.175 384.325 734.000 384.919 734.000 C 385.514 734.000 386.000 734.675 386.000 735.500 C 386.000 736.325 386.462 737.000 387.027 737.000 C 387.957 737.000 405.811 751.317 407.000 753.016 C 407.275 753.409 408.513 754.046 409.750 754.433 C 410.988 754.819 412.000 755.510 412.000 755.969 C 412.000 756.427 413.463 757.737 415.250 758.878 C 417.038 760.020 419.393 761.527 420.485 762.227 C 421.576 762.927 423.064 764.288 423.791 765.250 C 424.519 766.213 425.840 767.000 426.728 767.000 C 427.616 767.000 429.169 767.748 430.178 768.661 C 432.130 770.427 433.315 771.175 439.864 774.770 C 442.139 776.019 444.000 777.433 444.000 777.912 C 444.000 778.391 445.202 779.085 446.671 779.454 C 448.140 779.822 450.451 780.996 451.806 782.062 C 453.161 783.128 454.814 784.000 455.480 784.000 C 456.145 784.000 457.505 784.900 458.500 786.000 C 459.495 787.100 461.071 788.000 462.002 788.000 C 462.933 788.000 464.732 788.900 466.000 790.000 C 467.268 791.100 469.179 792.000 470.245 792.000 C 471.312 792.000 473.329 792.900 474.727 794.000 C 476.126 795.100 478.048 796.000 479.000 796.000 C 479.952 796.000 481.874 796.900 483.273 798.000 C 484.671 799.100 486.696 800.000 487.773 800.000 C 488.849 800.000 490.874 800.900 492.273 802.000 C 493.671 803.100 495.736 804.000 496.861 804.000 C 499.269 804.000 504.000 806.010 504.000 807.033 C 504.000 807.424 505.901 808.048 508.224 808.420 C 510.547 808.791 513.167 809.747 514.047 810.542 C 514.927 811.338 517.863 812.278 520.573 812.630 C 523.283 812.981 526.241 813.911 527.147 814.696 C 528.052 815.481 531.427 816.503 534.647 816.968 C 537.866 817.433 541.850 818.528 543.500 819.401 C 545.150 820.274 548.300 820.993 550.500 821.000 C 552.700 821.007 555.850 821.727 557.500 822.601 C 559.150 823.475 564.592 824.549 569.594 824.989 C 574.596 825.428 579.996 826.448 581.594 827.256 C 583.553 828.246 589.552 828.946 600.000 829.405 C 618.975 830.238 625.632 830.840 629.399 832.060 C 633.067 833.249 653.280 833.296 654.550 832.119 C 655.790 830.970 677.348 829.000 688.685 829.000 C 695.076 829.000 698.173 828.567 699.767 827.451 C 701.085 826.528 705.719 825.569 711.239 825.077 C 716.337 824.622 721.849 823.523 723.500 822.632 C 725.150 821.741 728.532 821.010 731.015 821.006 C 733.608 821.003 737.118 820.149 739.261 819.000 C 741.314 817.900 744.682 816.997 746.746 816.993 C 748.811 816.990 751.850 816.093 753.500 815.000 C 755.150 813.907 758.119 813.010 760.097 813.007 C 762.241 813.003 764.618 812.199 765.981 811.017 C 767.238 809.926 770.430 808.747 773.073 808.396 C 775.716 808.045 778.107 807.163 778.387 806.434 C 778.666 805.706 780.606 804.804 782.697 804.429 C 784.789 804.054 787.175 803.171 788.000 802.466 C 788.825 801.762 791.360 800.691 793.634 800.086 C 795.907 799.481 798.325 798.314 799.006 797.493 C 799.687 796.672 801.246 796.000 802.469 796.000 C 803.693 796.000 805.732 795.100 807.000 794.000 C 808.268 792.900 810.376 792.000 811.684 792.000 C 812.993 792.000 814.320 791.330 814.634 790.511 C 814.948 789.692 816.913 788.562 819.000 788.000 C 821.087 787.438 823.042 786.333 823.345 785.544 C 823.647 784.756 825.494 783.810 827.447 783.444 C 829.401 783.077 831.000 782.410 831.000 781.962 C 831.000 781.513 832.238 780.506 833.750 779.724 C 840.381 776.294 843.541 774.441 844.126 773.641 C 844.859 772.637 851.496 768.527 854.750 767.062 C 855.988 766.505 857.000 765.643 857.000 765.146 C 857.000 764.649 858.318 763.697 859.928 763.030 C 861.539 762.363 863.100 761.183 863.397 760.408 C 863.694 759.634 864.545 759.000 865.289 759.000 C 866.032 759.000 868.183 757.601 870.070 755.891 C 873.513 752.771 879.665 748.356 883.139 746.513 C 884.163 745.970 885.000 744.943 885.000 744.231 C 885.000 743.520 885.788 742.647 886.750 742.293 C 887.713 741.939 889.850 740.265 891.500 738.574 C 893.150 736.883 896.750 733.621 899.500 731.323 C 903.999 727.566 913.476 718.180 926.395 704.691 C 928.928 702.046 931.000 699.475 931.000 698.976 C 931.000 698.478 931.900 697.589 933.000 697.000 C 934.100 696.411 935.000 695.301 935.000 694.532 C 935.000 693.764 935.900 692.849 937.000 692.500 C 938.100 692.151 939.000 691.236 939.000 690.468 C 939.000 689.699 939.900 688.589 941.000 688.000 C 942.100 687.411 943.000 686.294 943.000 685.516 C 943.000 684.739 944.013 682.950 945.250 681.542 C 946.488 680.133 948.400 677.806 949.500 676.371 C 950.600 674.936 952.243 672.960 953.151 671.980 C 954.059 671.000 955.083 669.312 955.427 668.231 C 955.770 667.149 956.940 665.460 958.026 664.477 C 959.111 663.494 960.000 662.071 960.000 661.314 C 960.000 660.557 960.653 659.687 961.452 659.380 C 962.250 659.074 963.397 657.328 964.000 655.500 C 964.603 653.672 965.750 651.926 966.548 651.620 C 967.347 651.313 968.000 650.135 968.000 649.000 C 968.000 647.865 968.653 646.687 969.452 646.380 C 970.250 646.074 971.397 644.328 972.000 642.500 C 972.603 640.672 973.750 638.926 974.548 638.620 C 975.347 638.313 976.000 637.236 976.000 636.226 C 976.000 635.215 977.125 632.864 978.500 631.000 C 979.875 629.136 981.000 627.056 981.000 626.377 C 981.000 625.698 981.599 624.544 982.331 623.812 C 983.064 623.079 983.951 621.330 984.304 619.925 C 984.657 618.519 985.858 616.317 986.973 615.031 C 988.088 613.746 989.000 611.708 989.000 610.502 C 989.000 609.296 989.900 607.495 991.000 606.500 C 992.100 605.505 993.000 603.695 993.000 602.480 C 993.000 601.264 993.900 599.126 995.000 597.727 C 996.100 596.329 997.000 594.184 997.000 592.960 C 997.000 591.737 997.845 589.333 998.878 587.618 C 999.911 585.903 1001.048 582.858 1001.405 580.850 C 1001.761 578.843 1002.659 576.698 1003.400 576.083 C 1004.141 575.468 1005.047 572.702 1005.414 569.936 C 1005.781 567.169 1006.683 564.675 1007.418 564.393 C 1008.217 564.086 1009.036 561.389 1009.453 557.690 C 1009.837 554.285 1010.777 550.806 1011.542 549.958 C 1012.308 549.110 1013.242 545.735 1013.618 542.458 C 1013.995 539.181 1015.135 534.932 1016.152 533.015 C 1017.406 530.650 1018.000 527.427 1018.000 522.987 C 1018.000 518.502 1018.524 515.698 1019.665 514.068 C 1020.890 512.319 1021.517 508.339 1022.035 499.022 C 1022.463 491.332 1023.282 485.400 1024.120 483.927 C 1025.220 481.992 1025.499 474.504 1025.493 447.000 C 1025.486 417.159 1025.250 411.695 1023.743 406.540 C 1022.707 402.999 1021.986 397.114 1021.966 392.040 C 1021.941 385.700 1021.434 382.470 1020.000 379.500 C 1018.767 376.948 1018.056 373.322 1018.034 369.485 C 1018.012 365.617 1017.341 362.227 1016.153 359.985 C 1015.136 358.068 1014.015 353.659 1013.661 350.187 C 1013.307 346.715 1012.360 343.217 1011.556 342.413 C 1010.752 341.609 1009.790 338.262 1009.418 334.975 C 1009.046 331.689 1008.422 329.000 1008.031 329.000 C 1006.859 329.000 1005.000 324.108 1005.000 321.024 C 1005.000 319.440 1004.337 317.480 1003.527 316.670 C 1002.717 315.860 1001.651 313.400 1001.157 311.203 C 1000.663 309.006 999.526 306.161 998.630 304.882 C 997.733 303.602 997.000 301.489 997.000 300.185 C 997.000 298.882 996.100 296.671 995.000 295.273 C 993.900 293.874 993.000 291.744 993.000 290.539 C 993.000 289.335 991.958 287.370 990.686 286.174 L 988.371 284.000 917.186 284.000 L 846.000 284.000 846.000 462.000 C 846.000 638.667 845.985 640.015 844.000 642.000 C 842.215 643.785 840.667 644.000 829.622 644.000 C 820.470 644.000 816.954 643.649 816.128 642.654 C 815.328 641.690 814.938 615.940 814.755 551.904 L 814.500 462.500 761.054 462.241 C 719.821 462.041 707.427 461.699 706.819 460.741 C 706.385 460.059 706.024 403.344 706.015 334.708 C 706.005 252.016 705.659 209.508 704.988 208.708 C 700.970 203.911 698.000 199.515 698.000 198.362 C 698.000 197.613 697.325 197.000 696.500 197.000 C 695.675 197.000 695.000 196.351 695.000 195.557 C 695.000 194.763 694.191 193.525 693.202 192.807 C 692.213 192.088 689.904 189.163 688.070 186.306 C 686.236 183.450 684.121 180.877 683.368 180.588 C 682.616 180.299 682.000 179.389 682.000 178.567 C 682.000 177.744 681.100 176.589 680.000 176.000 C 678.900 175.411 678.000 174.256 678.000 173.433 C 678.000 172.611 677.342 171.685 676.538 171.376 C 675.734 171.068 674.820 170.007 674.506 169.019 C 673.993 167.403 671.685 164.412 667.481 159.916 C 666.666 159.045 666.000 157.823 666.000 157.201 C 666.000 156.579 665.100 155.589 664.000 155.000 C 662.900 154.411 662.000 153.349 662.000 152.639 C 662.000 151.929 660.875 150.292 659.500 149.000 C 658.125 147.708 657.000 146.071 657.000 145.361 C 657.000 144.651 656.100 143.589 655.000 143.000 C 653.900 142.411 653.000 141.293 653.000 140.515 C 653.000 139.736 652.415 138.740 651.700 138.300 C 650.985 137.860 649.379 136.038 648.132 134.250 C 646.884 132.463 645.451 131.000 644.946 131.000 C 644.441 131.000 640.443 134.600 636.060 139.000 C 631.678 143.400 627.892 147.000 627.646 147.000 C 627.400 147.000 624.301 149.813 620.758 153.250 C 617.215 156.688 611.082 162.425 607.130 166.000 C 603.177 169.575 597.005 175.313 593.414 178.750 C 589.823 182.188 586.461 185.000 585.943 185.000 C 585.424 185.000 585.000 185.675 585.000 186.500 C 585.000 187.325 584.598 188.000 584.107 188.000 C 582.849 188.000 564.574 206.058 563.163 208.695 C 562.304 210.301 562.000 234.354 562.000 300.812 C 562.000 377.919 561.789 391.261 560.521 394.294 C 559.708 396.241 556.064 400.458 552.423 403.666 C 548.782 406.875 543.182 412.026 539.980 415.113 C 536.777 418.200 533.446 420.999 532.578 421.332 C 531.710 421.665 531.000 422.626 531.000 423.469 C 531.000 424.311 530.539 425.000 529.976 425.000 C 529.413 425.000 525.110 428.825 520.414 433.500 C 515.718 438.175 511.454 442.000 510.938 442.000 C 510.422 442.000 510.000 442.675 510.000 443.500 C 510.000 444.325 509.560 445.000 509.021 445.000 C 508.483 445.000 504.931 448.038 501.129 451.750 C 497.326 455.463 490.955 461.425 486.970 465.000 C 482.984 468.575 478.211 473.008 476.362 474.850 L 473.000 478.200 473.000 559.900 C 473.000 622.111 472.714 641.886 471.800 642.800 C 471.007 643.593 466.738 644.000 459.223 644.000 C 447.972 644.000 447.814 643.968 444.912 641.065 L 441.977 638.131 442.012 560.823 C 442.037 508.078 441.717 483.406 441.006 483.169 C 440.433 482.978 439.352 482.209 438.603 481.460 C 437.854 480.711 435.950 479.792 434.371 479.418 C 432.792 479.044 430.600 477.945 429.500 476.977 C 428.400 476.008 426.075 474.915 424.334 474.547 C 422.592 474.179 420.919 473.230 420.615 472.439 C 420.311 471.648 418.924 471.000 417.531 471.000 C 416.139 471.000 414.146 470.146 413.102 469.102 C 412.058 468.058 409.695 466.874 407.852 466.472 C 406.008 466.069 403.427 464.898 402.115 463.870 C 400.803 462.841 399.074 462.000 398.273 462.000 C 397.471 462.000 395.671 461.100 394.273 460.000 C 392.874 458.900 390.946 458.000 389.988 458.000 C 389.029 458.000 387.687 457.328 387.006 456.507 C 386.325 455.686 384.022 454.545 381.890 453.970 C 374.871 452.080 374.956 452.720 375.020 402.697 C 375.052 378.314 374.797 357.635 374.455 356.743 C 374.113 355.852 372.552 354.841 370.986 354.497 C 369.420 354.153 367.639 353.270 367.028 352.534 C 366.418 351.798 364.734 350.899 363.288 350.536 C 361.841 350.173 359.549 349.004 358.194 347.938 C 356.839 346.872 354.877 346.000 353.834 346.000 C 352.791 346.000 351.680 345.330 351.366 344.511 C 351.052 343.692 349.087 342.562 347.000 342.000 C 344.913 341.438 342.948 340.308 342.634 339.489 C 342.320 338.670 340.993 338.000 339.686 338.000 C 338.379 338.000 336.495 337.100 335.500 336.000 C 334.505 334.900 332.860 334.000 331.845 334.000 C 330.830 334.000 329.100 333.100 328.000 332.000 C 326.900 330.900 325.412 330.000 324.694 330.000 C 323.976 330.000 321.864 328.875 320.000 327.500 C 318.136 326.125 315.799 325.000 314.806 325.000 C 313.813 325.000 313.000 324.599 313.000 324.109 C 313.000 323.618 311.313 322.533 309.250 321.697 C 306.251 320.481 305.115 319.223 303.580 315.417 C 301.769 310.927 301.755 310.492 303.330 307.748 C 304.249 306.147 305.000 304.035 305.000 303.054 C 305.000 302.073 305.900 300.126 307.000 298.727 C 308.100 297.329 309.000 295.304 309.000 294.227 C 309.000 293.151 309.841 291.197 310.870 289.885 C 311.898 288.573 313.051 286.075 313.431 284.334 C 313.811 282.592 314.727 280.935 315.467 280.651 C 316.206 280.367 317.121 278.724 317.500 277.000 C 317.879 275.276 318.794 273.633 319.533 273.349 C 320.273 273.065 321.183 271.408 321.555 269.666 C 321.928 267.925 323.081 265.695 324.116 264.711 C 325.152 263.727 326.000 262.109 326.000 261.116 C 326.000 260.123 326.900 258.495 328.000 257.500 C 329.100 256.505 330.000 255.071 330.000 254.314 C 330.000 253.557 330.653 252.687 331.452 252.380 C 332.250 252.074 333.410 250.288 334.029 248.412 C 334.648 246.535 335.795 245.000 336.578 245.000 C 337.360 245.000 338.000 244.170 338.000 243.155 C 338.000 242.140 338.900 240.495 340.000 239.500 C 341.100 238.505 342.000 237.303 342.000 236.831 C 342.000 236.076 348.359 227.517 352.405 222.826 C 353.199 221.905 354.397 220.126 355.068 218.873 C 355.739 217.620 357.719 215.223 359.468 213.547 C 361.217 211.871 362.939 209.713 363.293 208.750 C 363.647 207.788 364.626 207.000 365.469 207.000 C 366.311 207.000 367.000 206.341 367.000 205.535 C 367.000 204.730 367.900 203.589 369.000 203.000 C 370.100 202.411 371.000 201.461 371.000 200.888 C 371.000 199.515 376.543 194.000 377.923 194.000 C 378.515 194.000 379.000 193.462 379.000 192.804 C 379.000 191.776 392.620 178.000 393.636 178.000 C 393.838 178.000 395.749 176.200 397.884 174.000 C 400.019 171.800 402.046 170.000 402.389 170.000 C 402.731 170.000 405.767 167.312 409.135 164.026 C 412.503 160.741 416.213 157.751 417.379 157.383 C 418.546 157.014 420.088 155.878 420.807 154.857 C 421.525 153.835 422.613 153.000 423.223 153.000 C 423.833 153.000 425.045 152.327 425.916 151.505 C 429.191 148.415 433.823 145.000 434.739 145.000 C 435.262 145.000 436.505 144.100 437.500 143.000 C 438.495 141.900 439.845 141.000 440.500 141.000 C 441.155 141.000 442.505 140.100 443.500 139.000 C 444.495 137.900 446.124 137.000 447.120 137.000 C 448.115 137.000 449.384 136.152 449.938 135.115 C 450.493 134.078 452.096 132.942 453.499 132.590 C 454.903 132.237 456.939 131.061 458.025 129.975 C 459.111 128.889 460.675 128.000 461.500 128.000 C 462.325 128.000 463.900 127.100 465.000 126.000 C 466.100 124.900 467.717 124.000 468.592 124.000 C 469.468 124.000 471.329 123.100 472.727 122.000 C 474.126 120.900 476.009 120.000 476.913 120.000 C 477.816 120.000 479.326 119.100 480.268 118.000 C 481.210 116.900 482.903 116.000 484.031 116.000 C 485.158 116.000 487.300 115.142 488.790 114.093 C 490.281 113.045 493.144 111.908 495.153 111.566 C 497.163 111.225 499.039 110.340 499.324 109.599 C 499.608 108.858 501.564 107.933 503.670 107.542 C 505.777 107.151 508.253 106.156 509.172 105.331 C 510.092 104.506 512.792 103.591 515.172 103.298 C 517.553 103.005 520.001 102.141 520.614 101.378 C 521.226 100.615 523.809 99.602 526.353 99.126 C 528.898 98.651 531.611 97.738 532.384 97.096 C 533.156 96.455 536.198 95.646 539.144 95.297 C 542.090 94.949 545.850 93.841 547.500 92.836 C 549.354 91.706 552.424 91.006 555.539 91.004 C 558.596 91.001 562.119 90.214 564.500 89.000 C 567.290 87.577 570.397 87.000 575.261 87.000 C 579.716 87.000 583.215 86.416 585.300 85.325 C 593.884 80.833 689.632 80.827 696.044 85.318 C 697.780 86.534 700.541 87.000 706.011 87.000 C 711.603 87.000 714.601 87.522 717.500 89.000 C 719.658 90.100 723.354 91.000 725.715 91.000 C 728.097 91.000 731.668 91.890 733.739 93.000 C 735.791 94.100 738.834 95.000 740.500 95.000 C 742.166 95.000 745.098 95.836 747.015 96.857 C 748.932 97.879 752.601 99.026 755.168 99.406 C 757.736 99.787 760.332 100.695 760.937 101.424 C 761.542 102.154 763.797 103.032 765.948 103.376 C 768.099 103.720 770.520 104.663 771.330 105.473 C 772.139 106.282 774.709 107.250 777.039 107.622 C 779.370 107.995 781.989 109.132 782.860 110.150 C 783.732 111.167 785.625 112.000 787.067 112.000 C 788.510 112.000 790.505 112.900 791.500 114.000 C 792.495 115.100 794.296 116.000 795.502 116.000 C 796.708 116.000 798.732 116.900 800.000 118.000 C 801.268 119.100 803.137 120.000 804.153 120.000 C 805.169 120.000 806.900 120.900 808.000 122.000 C 809.100 123.100 810.904 124.000 812.010 124.000 C 813.115 124.000 814.790 124.900 815.732 126.000 C 816.674 127.100 818.244 128.000 819.222 128.000 C 820.200 128.000 821.853 128.853 822.895 129.895 C 824.796 131.796 827.840 133.651 833.580 136.406 C 835.273 137.219 837.241 138.585 837.952 139.442 C 838.663 140.299 839.620 141.000 840.078 141.000 C 841.401 141.000 848.418 146.002 849.300 147.574 C 849.740 148.358 850.748 149.000 851.541 149.000 C 852.334 149.000 853.545 149.900 854.232 151.000 C 854.919 152.100 856.203 153.000 857.086 153.000 C 861.433 153.000 863.786 162.257 860.532 166.559 C 859.654 167.719 859.064 170.712 859.064 174.000 C 859.064 177.288 859.654 180.281 860.532 181.441 C 861.339 182.509 862.000 184.559 862.000 185.997 C 862.000 187.435 863.125 190.136 864.500 192.000 C 865.875 193.864 867.000 195.960 867.000 196.659 C 867.000 197.358 867.900 198.411 869.000 199.000 C 870.100 199.589 871.000 200.730 871.000 201.535 C 871.000 202.341 871.852 203.000 872.893 203.000 C 873.934 203.000 875.028 203.630 875.323 204.399 C 875.618 205.169 877.579 206.359 879.680 207.044 C 881.781 207.729 883.820 208.787 884.212 209.395 C 884.637 210.055 889.361 210.636 895.951 210.838 C 905.740 211.138 907.358 210.942 910.357 209.088 C 912.216 207.940 914.434 207.000 915.286 207.000 C 916.139 207.000 918.710 205.200 921.000 203.000 C 923.290 200.800 925.470 199.000 925.844 199.000 C 926.595 199.000 927.011 198.272 931.750 188.669 C 934.606 182.883 935.000 181.102 935.000 174.000 C 935.000 167.053 934.564 164.984 931.901 159.288 C 930.196 155.642 928.171 152.028 927.401 151.258 C 926.630 150.487 926.000 149.214 926.000 148.429 C 926.000 147.643 925.475 147.000 924.834 147.000 C 924.193 147.000 922.955 146.314 922.084 145.475 C 918.814 142.328 913.200 139.260 909.415 138.553 C 907.262 138.150 904.888 137.315 904.139 136.696 C 902.361 135.226 892.617 135.243 890.839 136.719 C 890.078 137.350 886.420 138.426 882.709 139.109 C 876.797 140.199 875.532 140.147 872.481 138.692 C 870.567 137.779 869.000 136.575 869.000 136.016 C 869.000 135.457 868.341 135.000 867.535 135.000 C 866.730 135.000 865.589 134.100 865.000 133.000 C 864.411 131.900 863.294 131.000 862.516 131.000 C 861.739 131.000 859.889 129.875 858.405 128.500 C 856.922 127.125 855.114 126.000 854.389 126.000 C 853.664 126.000 852.589 125.100 852.000 124.000 C 851.411 122.900 850.193 122.000 849.294 122.000 C 848.394 122.000 846.831 121.252 845.822 120.339 C 843.747 118.461 840.920 116.731 836.420 114.585 C 834.727 113.777 832.759 112.415 832.048 111.558 C 831.337 110.701 829.910 110.000 828.878 110.000 C 827.845 110.000 826.165 109.165 825.145 108.145 C 824.124 107.124 822.131 105.999 820.715 105.643 C 819.299 105.288 817.525 104.382 816.773 103.630 C 816.022 102.879 814.303 101.918 812.953 101.494 C 811.604 101.071 809.427 99.887 808.115 98.862 C 806.803 97.838 804.849 97.000 803.773 97.000 C 802.696 97.000 800.671 96.100 799.273 95.000 C 797.874 93.900 795.721 93.000 794.488 93.000 C 793.254 93.000 791.695 92.337 791.022 91.526 C 790.349 90.716 788.157 89.766 786.150 89.415 C 784.142 89.064 781.999 88.150 781.386 87.384 C 780.774 86.618 778.098 85.584 775.441 85.088 C 772.783 84.591 770.084 83.468 769.444 82.593 C 768.777 81.680 766.833 80.998 764.890 80.996 C 763.025 80.994 760.146 80.167 758.490 79.157 C 756.835 78.147 753.073 77.002 750.130 76.612 C 747.187 76.221 743.817 75.292 742.640 74.546 C 741.463 73.800 738.025 72.870 735.000 72.478 C 731.975 72.086 728.297 71.150 726.827 70.397 C 725.357 69.644 720.857 68.744 716.827 68.396 C 712.797 68.048 708.503 67.142 707.284 66.381 C 705.908 65.522 699.847 64.664 691.284 64.115 C 683.703 63.629 676.150 62.636 674.500 61.909 C 671.084 60.404 616.829 59.538 611.413 60.903 M 302.000 582.000 C 303.100 583.100 304.434 584.000 304.965 584.000 C 305.495 584.000 306.461 585.013 307.111 586.250 C 307.760 587.488 308.901 588.860 309.646 589.300 C 311.899 590.630 311.425 600.305 309.000 602.500 C 307.900 603.495 306.981 604.803 306.958 605.405 C 306.934 606.007 305.247 607.576 303.208 608.890 C 298.789 611.739 291.291 612.119 289.440 609.587 C 288.802 608.714 287.867 608.000 287.362 608.000 C 286.858 608.000 285.150 606.538 283.567 604.750 C 279.328 599.963 278.860 593.322 282.386 587.993 C 283.839 585.797 285.697 584.000 286.514 584.000 C 287.331 584.000 288.000 583.535 288.000 582.968 C 288.000 579.804 299.041 579.041 302.000 582.000 M 904.235 160.250 C 910.740 164.890 911.934 166.980 911.968 173.789 C 911.998 179.719 911.781 180.312 908.161 184.193 C 904.717 187.886 903.738 188.357 898.645 188.780 C 893.654 189.193 892.488 188.917 888.984 186.489 C 886.793 184.971 885.000 183.298 885.000 182.772 C 885.000 182.246 884.100 180.671 883.000 179.273 C 881.900 177.874 881.000 175.823 881.000 174.715 C 881.000 172.087 886.111 162.007 887.459 161.978 C 888.032 161.966 889.625 161.076 891.000 160.000 C 894.432 157.315 900.276 157.426 904.235 160.250 "/></g>
<g fill="#3972C1FF" stroke="#3972C1FF">
<path d="M 688.080 876.850 C 687.341 878.232 687.000 897.937 687.000 939.312 C 687.000 990.104 687.225 999.942 688.410 1000.925 C 689.272 1001.641 692.478 1001.980 696.660 1001.798 L 703.500 1001.500 704.000 953.833 C 704.275 927.616 704.821 905.844 705.214 905.452 C 706.264 904.403 713.019 907.873 713.731 909.826 C 714.066 910.747 715.389 912.772 716.670 914.327 C 717.952 915.881 719.000 917.794 719.000 918.577 C 719.000 919.360 719.393 920.000 719.872 920.000 C 720.352 920.000 722.264 922.529 724.122 925.620 C 725.980 928.711 728.288 931.961 729.250 932.842 C 730.213 933.723 731.000 934.964 731.000 935.600 C 731.000 936.235 731.745 937.373 732.655 938.128 C 733.565 938.882 734.921 940.963 735.668 942.750 C 736.416 944.538 737.427 946.000 737.916 946.000 C 738.404 946.000 739.275 947.350 739.850 949.000 C 740.425 950.650 741.334 952.000 741.870 952.000 C 742.406 952.000 743.365 953.575 744.000 955.500 C 744.635 957.425 745.498 959.000 745.916 959.000 C 746.572 959.000 753.281 968.515 756.589 974.136 C 757.188 975.154 758.425 976.812 759.339 977.822 C 760.252 978.831 761.000 980.394 761.000 981.294 C 761.000 982.193 761.900 983.411 763.000 984.000 C 764.100 984.589 765.000 985.674 765.000 986.413 C 765.000 987.151 765.745 988.373 766.655 989.128 C 767.565 989.882 768.921 991.963 769.668 993.750 C 770.416 995.538 771.399 997.000 771.853 997.000 C 772.307 997.000 773.198 998.138 773.832 999.530 L 774.984 1002.060 787.742 1001.780 L 800.500 1001.500 800.500 938.500 L 800.500 875.500 792.595 875.205 C 788.247 875.043 784.291 875.309 783.805 875.795 C 783.318 876.282 782.926 896.645 782.933 921.090 C 782.940 945.516 782.604 967.075 782.186 969.000 C 781.667 971.392 780.804 972.586 779.463 972.773 C 777.585 973.034 776.225 971.440 772.145 964.196 C 771.400 962.873 769.938 960.938 768.895 959.895 C 767.853 958.853 767.000 957.619 767.000 957.153 C 767.000 956.687 766.100 955.268 765.000 954.000 C 763.900 952.732 763.000 951.104 763.000 950.382 C 763.000 949.661 762.100 948.589 761.000 948.000 C 759.900 947.411 759.000 946.446 759.000 945.855 C 759.000 944.334 752.836 935.000 751.832 935.000 C 751.374 935.000 751.000 934.520 751.000 933.933 C 751.000 933.347 749.875 931.392 748.500 929.589 C 747.125 927.786 746.000 925.566 746.000 924.656 C 746.000 923.745 745.574 923.000 745.053 923.000 C 743.929 923.000 737.000 912.801 737.000 911.146 C 737.000 910.516 736.594 910.000 736.099 910.000 C 735.236 910.000 732.079 905.518 729.099 900.064 C 728.329 898.654 727.091 897.140 726.349 896.700 C 725.607 896.260 725.000 895.303 725.000 894.573 C 725.000 893.842 724.366 892.719 723.592 892.076 C 722.818 891.434 721.447 889.354 720.545 887.454 C 719.644 885.554 718.508 884.000 718.020 884.000 C 717.533 884.000 716.866 883.153 716.538 882.119 C 716.209 881.084 715.017 879.172 713.889 877.869 C 711.994 875.681 710.968 875.474 700.498 875.166 C 689.967 874.856 689.084 874.975 688.080 876.850 "/></g>
<g fill="#3972C1FF" stroke="#3972C1FF">
<path d="M 504.000 874.698 C 498.225 875.532 491.864 877.066 489.864 878.107 C 487.864 879.148 485.580 880.000 484.788 880.000 C 483.996 880.000 482.292 881.125 481.000 882.500 C 479.708 883.875 478.055 885.000 477.326 885.000 C 476.597 885.000 476.000 885.675 476.000 886.500 C 476.000 887.325 475.066 888.934 473.925 890.075 C 472.784 891.216 471.621 893.804 471.340 895.825 C 471.060 897.846 469.969 901.608 468.915 904.185 C 466.499 910.096 466.478 915.548 468.853 920.015 C 469.873 921.932 471.000 925.092 471.359 927.037 C 472.101 931.065 480.279 940.337 484.126 941.511 C 485.432 941.910 487.175 942.805 488.000 943.500 C 490.410 945.530 492.624 945.840 509.500 946.510 C 518.300 946.859 529.967 947.787 535.426 948.572 C 540.886 949.358 547.470 950.000 550.057 950.000 C 554.219 950.000 555.058 950.387 557.315 953.346 C 558.983 955.533 559.959 958.220 560.131 961.096 C 560.587 968.723 560.048 973.810 558.632 975.225 C 557.879 975.978 556.949 977.586 556.564 978.800 C 556.129 980.170 553.711 982.046 550.182 983.753 L 544.500 986.500 521.355 986.500 C 501.376 986.500 497.956 986.277 496.355 984.868 C 495.335 983.971 493.488 982.928 492.250 982.551 C 491.013 982.174 490.000 981.243 490.000 980.482 C 490.000 979.722 489.272 978.692 488.383 978.195 C 487.320 977.600 486.549 975.288 486.133 971.447 L 485.500 965.605 479.000 965.753 C 475.425 965.834 471.242 965.923 469.705 965.950 C 467.027 965.998 466.938 966.157 467.585 969.750 C 467.957 971.813 468.656 974.001 469.139 974.613 C 469.622 975.225 470.491 978.290 471.071 981.425 C 471.650 984.560 472.884 987.951 473.812 988.961 C 474.740 989.971 476.730 992.194 478.234 993.899 C 479.738 995.605 481.589 997.000 482.349 997.000 C 483.109 997.000 484.834 997.868 486.184 998.930 C 487.709 1000.129 491.071 1001.114 495.068 1001.533 C 498.606 1001.903 503.944 1002.890 506.930 1003.726 C 513.413 1005.541 534.675 1005.779 537.864 1004.073 C 539.020 1003.454 543.683 1002.482 548.227 1001.912 C 553.224 1001.286 556.791 1000.339 557.251 999.516 C 557.669 998.768 559.321 997.869 560.921 997.517 C 564.325 996.770 569.255 992.342 571.484 988.031 C 572.346 986.364 573.427 985.000 573.887 985.000 C 574.347 985.000 575.454 980.163 576.347 974.250 C 577.757 964.922 577.795 962.503 576.637 955.960 C 575.227 948.000 571.618 940.360 568.842 939.461 C 567.931 939.166 566.949 938.308 566.660 937.556 C 566.371 936.804 564.724 935.879 563.000 935.500 C 561.276 935.121 559.633 934.207 559.349 933.467 C 558.695 931.763 553.256 931.216 530.000 930.513 C 519.355 930.191 508.952 929.342 505.500 928.513 C 502.200 927.720 497.909 927.055 495.964 927.036 C 493.006 927.006 491.890 926.305 489.137 922.750 C 485.952 918.637 485.857 918.242 486.173 910.475 C 486.453 903.602 486.879 901.967 489.140 899.079 C 490.648 897.153 494.080 894.714 497.140 893.393 C 502.130 891.240 503.879 891.076 522.500 891.023 C 541.320 890.969 542.773 891.099 547.129 893.233 C 551.715 895.479 555.535 900.625 556.234 905.500 C 556.486 907.252 557.386 907.532 563.511 907.757 C 567.355 907.899 571.005 907.674 571.622 907.257 C 573.331 906.103 571.347 893.103 568.956 889.790 C 567.880 888.300 567.000 886.803 567.000 886.464 C 567.000 885.080 561.031 880.000 559.406 880.000 C 558.444 880.000 556.790 879.213 555.729 878.250 C 551.429 874.349 520.929 872.255 504.000 874.698 "/></g>
<g fill="#3972C1FF" stroke="#3972C1FF">
<path d="M 896.000 874.563 C 891.875 875.284 886.546 875.903 884.158 875.937 C 881.406 875.977 878.884 876.733 877.273 878.000 C 875.874 879.100 873.736 880.000 872.520 880.000 C 871.305 880.000 869.495 880.900 868.500 882.000 C 867.505 883.100 866.275 884.000 865.768 884.000 C 864.503 884.000 859.000 889.600 859.000 890.888 C 859.000 891.461 858.100 892.411 857.000 893.000 C 855.900 893.589 855.000 894.894 855.000 895.900 C 855.000 896.907 854.157 898.803 853.127 900.115 C 852.096 901.427 850.918 904.975 850.508 908.000 C 850.098 911.025 849.042 915.300 848.161 917.500 C 845.861 923.242 845.874 956.093 848.177 960.500 C 849.040 962.150 850.065 966.125 850.455 969.332 C 850.901 973.001 851.876 975.876 853.082 977.082 C 854.137 978.137 855.000 979.830 855.000 980.845 C 855.000 981.860 855.900 983.505 857.000 984.500 C 858.100 985.495 859.000 986.915 859.000 987.655 C 859.000 988.395 859.659 989.000 860.465 989.000 C 861.270 989.000 862.411 989.900 863.000 991.000 C 863.589 992.100 864.714 993.000 865.500 993.000 C 866.286 993.000 867.411 993.900 868.000 995.000 C 868.626 996.170 870.094 997.000 871.535 997.000 C 872.891 997.000 874.869 997.869 875.930 998.930 C 877.270 1000.270 879.948 1001.070 884.680 1001.543 C 888.431 1001.918 893.525 1002.910 896.000 1003.749 C 902.220 1005.856 918.972 1005.865 925.500 1003.764 C 928.250 1002.879 933.125 1001.859 936.332 1001.496 C 940.060 1001.074 942.856 1000.144 944.082 998.918 C 945.137 997.863 946.696 997.000 947.548 997.000 C 949.019 997.000 959.000 987.807 959.000 986.452 C 959.000 986.098 959.838 984.614 960.861 983.154 C 961.885 981.694 963.043 978.747 963.434 976.604 C 963.825 974.461 964.813 971.689 965.629 970.443 C 967.656 967.350 968.909 933.800 967.080 931.596 C 965.300 929.452 916.911 929.232 914.784 931.358 C 913.042 933.101 912.508 942.213 913.987 944.975 C 915.000 946.868 916.034 947.000 929.813 947.000 C 949.648 947.000 949.408 946.831 948.785 960.394 C 948.390 969.010 947.964 971.016 945.898 974.000 C 942.326 979.158 939.694 982.000 938.489 982.000 C 937.903 982.000 935.640 982.988 933.461 984.195 C 929.784 986.232 928.136 986.393 910.456 986.445 C 893.942 986.493 891.057 986.267 888.741 984.750 C 887.272 983.788 884.930 983.000 883.535 983.000 C 882.141 983.000 880.100 982.100 879.000 981.000 C 877.900 979.900 876.603 979.000 876.119 979.000 C 875.114 979.000 870.000 972.566 870.000 971.302 C 870.000 970.845 868.988 968.677 867.750 966.485 C 865.589 962.657 865.500 961.547 865.500 938.355 C 865.500 917.405 865.717 913.964 867.139 912.355 C 868.040 911.335 869.095 909.007 869.483 907.182 C 869.871 905.358 870.804 903.629 871.556 903.340 C 872.308 903.051 873.196 901.957 873.529 900.908 C 873.862 899.858 874.710 899.000 875.412 899.000 C 876.115 899.000 877.505 898.100 878.500 897.000 C 879.495 895.900 881.124 895.000 882.118 895.000 C 883.112 895.000 886.209 894.100 889.000 893.000 C 893.327 891.295 896.432 891.000 910.087 891.000 C 921.933 891.000 926.811 891.368 928.834 892.414 C 930.338 893.192 933.354 894.156 935.535 894.556 C 937.716 894.956 940.388 895.895 941.473 896.642 C 943.816 898.255 946.000 898.411 946.000 896.964 C 946.000 896.394 948.025 893.814 950.500 891.231 C 952.975 888.648 955.000 886.168 955.000 885.720 C 955.000 884.368 949.618 880.066 947.885 880.032 C 946.997 880.014 945.126 879.100 943.727 878.000 C 942.201 876.800 939.648 875.993 937.342 875.983 C 935.229 875.973 929.450 875.300 924.500 874.486 C 913.900 872.745 906.283 872.765 896.000 874.563 "/></g>
<g fill="#3972C1FF" stroke="#3972C1FF">
<path d="M 314.627 875.706 C 314.282 876.051 314.000 896.684 314.000 921.557 C 314.000 964.478 314.101 967.004 315.978 971.141 C 317.066 973.538 317.966 976.682 317.978 978.128 C 317.990 979.573 318.658 981.301 319.461 981.968 C 320.265 982.635 321.227 984.141 321.600 985.314 C 322.621 988.533 331.633 996.761 334.931 997.485 C 336.527 997.835 338.068 998.734 338.354 999.481 C 338.666 1000.292 341.220 1001.106 344.688 1001.498 C 347.885 1001.860 352.672 1002.843 355.328 1003.684 C 361.052 1005.496 378.446 1005.704 380.518 1003.985 C 381.269 1003.362 385.172 1002.409 389.191 1001.867 C 393.211 1001.325 396.978 1000.263 397.562 999.507 C 398.146 998.751 399.946 997.802 401.562 997.397 C 406.868 996.069 416.364 984.786 417.889 977.996 C 418.401 975.720 419.540 973.061 420.420 972.089 C 421.847 970.512 421.992 965.203 421.760 922.910 L 421.500 875.500 417.000 875.177 C 414.525 875.000 410.588 875.140 408.250 875.488 L 404.000 876.123 403.929 916.811 C 403.848 962.904 403.300 972.693 400.716 974.139 C 399.772 974.667 399.000 975.674 399.000 976.375 C 399.000 978.141 395.014 981.622 392.000 982.489 C 390.625 982.885 388.375 983.949 387.000 984.854 C 383.197 987.358 352.597 987.275 348.742 984.750 C 347.273 983.788 345.403 983.000 344.587 983.000 C 342.675 983.000 338.699 979.298 335.325 974.378 L 332.666 970.500 332.216 923.500 C 331.969 897.650 331.568 876.286 331.325 876.025 C 330.641 875.290 315.336 874.998 314.627 875.706 "/></g>
<g fill="#3972C1FF" stroke="#3972C1FF">
<path d="M 625.743 875.691 C 624.086 876.123 624.000 879.749 624.243 938.825 L 624.500 1001.500 632.500 1001.500 L 640.500 1001.500 640.760 939.500 C 641.056 869.235 641.778 874.905 632.559 875.116 C 629.776 875.180 626.709 875.438 625.743 875.691 "/></g>
</svg>
